<svg width="201" height="28" viewBox="0 0 201 28" fill="none" xmlns="http://www.w3.org/2000/svg">
<path d="M23.6552 23.5585H14L23.6552 13.9999V23.5585Z" fill="url(#paint0_linear_13_2782)"/>
<path opacity="0.14" d="M23.6547 23.5585L18.8271 18.7309L19.6961 17.9585L23.6547 23.5585Z" fill="url(#paint1_linear_13_2782)"/>
<path d="M23.6552 23.5585H4.44141V4.34473L23.6552 23.5585Z" fill="url(#paint2_linear_13_2782)"/>
<path d="M110 10.4247V13.4592C109.714 13.4182 109.468 13.3771 109.264 13.3771C107.996 13.3771 107.015 13.7462 106.32 14.4843C105.625 15.2224 105.257 16.2476 105.257 17.6008V24.2438H102.027V10.4247H105.094V12.557C105.993 11.1628 107.628 10.4247 110 10.4247Z" fill="white"/>
<path d="M99.8202 18.3389H89.2721C89.4765 19.3231 89.9262 20.1022 90.703 20.7173C91.4798 21.2914 92.461 21.5784 93.6058 21.5784C95.0776 21.5784 96.3041 21.0863 97.2445 20.1022L99.0434 21.9065C98.4301 22.6446 97.5716 23.3007 96.6312 23.6698C95.6909 24.0388 94.6688 24.2438 93.524 24.2438C92.0522 24.2438 90.7439 23.9568 89.6401 23.3417C88.5362 22.7676 87.6367 21.9475 87.0235 20.8813C86.4102 19.8152 86.124 18.626 86.124 17.3138C86.124 16.0016 86.4102 14.8124 87.0235 13.7872C87.6367 12.721 88.4544 11.9009 89.5174 11.3268C90.5804 10.7527 91.766 10.4247 93.0743 10.4247C94.3826 10.4247 95.5682 10.7117 96.5903 11.2858C97.6124 11.8599 98.4301 12.68 99.0025 13.7462C99.5749 14.8124 99.8611 16.0016 99.8611 17.3958C99.8611 17.6008 99.8611 17.9289 99.8202 18.3389ZM90.5395 13.8692C89.8445 14.4843 89.4356 15.2634 89.2721 16.2476H96.8765C96.7539 15.2634 96.345 14.4843 95.65 13.8692C94.955 13.2541 94.0964 12.9671 93.0743 12.9671C92.0522 12.9671 91.2345 13.2541 90.5395 13.8692Z" fill="white"/>
<path d="M86.2875 10.4247L80.3184 24.2438H77.2112L71.2422 10.4247H74.5129L78.8466 20.5943L83.303 10.4247H86.2875Z" fill="white"/>
<path d="M71.5282 18.3389H60.9801C61.1845 19.3231 61.6342 20.1022 62.411 20.7173C63.1878 21.2914 64.1691 21.5784 65.3138 21.5784C66.7856 21.5784 68.0122 21.0863 68.9525 20.1022L70.7514 21.9065C70.1381 22.6446 69.2796 23.3007 68.3392 23.6698C67.3989 24.0388 66.3768 24.2438 65.232 24.2438C63.7602 24.2438 62.4519 23.9568 61.3481 23.3417C60.2442 22.7676 59.3447 21.9475 58.7315 20.8813C58.1182 19.8152 57.832 18.626 57.832 17.3138C57.832 16.0016 58.1182 14.8124 58.7315 13.7872C59.3447 12.721 60.1624 11.9009 61.2254 11.3268C62.2884 10.7527 63.474 10.4247 64.7823 10.4247C66.0906 10.4247 67.2762 10.7117 68.2983 11.2858C69.3204 11.8599 70.1381 12.68 70.7105 13.7462C71.2829 14.8124 71.5691 16.0016 71.5691 17.3958C71.5691 17.6008 71.5691 17.9289 71.5282 18.3389ZM62.2066 13.8692C61.5116 14.4843 61.1028 15.2634 60.9392 16.2476H68.5436C68.421 15.2634 68.0122 14.4843 67.3171 13.8692C66.6221 13.2541 65.7635 12.9671 64.7414 12.9671C63.7602 12.9671 62.9017 13.2541 62.2066 13.8692Z" fill="white"/>
<path d="M51.8223 5.34033H54.9703V24.2443H51.8223V5.34033Z" fill="white"/>
<path d="M45.2806 10.4247H49.2054L40.6607 19.036L38.6982 17.0677L45.2806 10.4247Z" fill="white"/>
<path d="M38.6982 17.0274L40.6198 15.1001L49.7369 24.2445H45.8529L38.6982 17.0684V17.0274Z" fill="white"/>
<path d="M39.1481 5.34033H36V24.2443H39.1481V5.34033Z" fill="white"/>
<path d="M121.236 23V21.11L121.056 20.696V17.312C121.056 16.712 120.87 16.244 120.498 15.908C120.138 15.572 119.58 15.404 118.824 15.404C118.308 15.404 117.798 15.488 117.294 15.656C116.802 15.812 116.382 16.028 116.034 16.304L115.026 14.342C115.554 13.97 116.19 13.682 116.934 13.478C117.678 13.274 118.434 13.172 119.202 13.172C120.678 13.172 121.824 13.52 122.64 14.216C123.456 14.912 123.864 15.998 123.864 17.474V23H121.236ZM118.284 23.144C117.528 23.144 116.88 23.018 116.34 22.766C115.8 22.502 115.386 22.148 115.098 21.704C114.81 21.26 114.666 20.762 114.666 20.21C114.666 19.634 114.804 19.13 115.08 18.698C115.368 18.266 115.818 17.93 116.43 17.69C117.042 17.438 117.84 17.312 118.824 17.312H121.398V18.95H119.13C118.47 18.95 118.014 19.058 117.762 19.274C117.522 19.49 117.402 19.76 117.402 20.084C117.402 20.444 117.54 20.732 117.816 20.948C118.104 21.152 118.494 21.254 118.986 21.254C119.454 21.254 119.874 21.146 120.246 20.93C120.618 20.702 120.888 20.372 121.056 19.94L121.488 21.236C121.284 21.86 120.912 22.334 120.372 22.658C119.832 22.982 119.136 23.144 118.284 23.144ZM131.156 23.144C130.112 23.144 129.182 22.934 128.366 22.514C127.55 22.082 126.908 21.488 126.44 20.732C125.984 19.976 125.756 19.118 125.756 18.158C125.756 17.186 125.984 16.328 126.44 15.584C126.908 14.828 127.55 14.24 128.366 13.82C129.182 13.388 130.112 13.172 131.156 13.172C132.176 13.172 133.064 13.388 133.82 13.82C134.576 14.24 135.134 14.846 135.494 15.638L133.316 16.808C133.064 16.352 132.746 16.016 132.362 15.8C131.99 15.584 131.582 15.476 131.138 15.476C130.658 15.476 130.226 15.584 129.842 15.8C129.458 16.016 129.152 16.322 128.924 16.718C128.708 17.114 128.6 17.594 128.6 18.158C128.6 18.722 128.708 19.202 128.924 19.598C129.152 19.994 129.458 20.3 129.842 20.516C130.226 20.732 130.658 20.84 131.138 20.84C131.582 20.84 131.99 20.738 132.362 20.534C132.746 20.318 133.064 19.976 133.316 19.508L135.494 20.696C135.134 21.476 134.576 22.082 133.82 22.514C133.064 22.934 132.176 23.144 131.156 23.144ZM143.05 23V21.11L142.87 20.696V17.312C142.87 16.712 142.684 16.244 142.312 15.908C141.952 15.572 141.394 15.404 140.638 15.404C140.122 15.404 139.612 15.488 139.108 15.656C138.616 15.812 138.196 16.028 137.848 16.304L136.84 14.342C137.368 13.97 138.004 13.682 138.748 13.478C139.492 13.274 140.248 13.172 141.016 13.172C142.492 13.172 143.638 13.52 144.454 14.216C145.27 14.912 145.678 15.998 145.678 17.474V23H143.05ZM140.098 23.144C139.342 23.144 138.694 23.018 138.154 22.766C137.614 22.502 137.2 22.148 136.912 21.704C136.624 21.26 136.48 20.762 136.48 20.21C136.48 19.634 136.618 19.13 136.894 18.698C137.182 18.266 137.632 17.93 138.244 17.69C138.856 17.438 139.654 17.312 140.638 17.312H143.212V18.95H140.944C140.284 18.95 139.828 19.058 139.576 19.274C139.336 19.49 139.216 19.76 139.216 20.084C139.216 20.444 139.354 20.732 139.63 20.948C139.918 21.152 140.308 21.254 140.8 21.254C141.268 21.254 141.688 21.146 142.06 20.93C142.432 20.702 142.702 20.372 142.87 19.94L143.302 21.236C143.098 21.86 142.726 22.334 142.186 22.658C141.646 22.982 140.95 23.144 140.098 23.144ZM152.448 23.144C151.536 23.144 150.714 22.94 149.982 22.532C149.25 22.112 148.668 21.53 148.236 20.786C147.816 20.042 147.606 19.166 147.606 18.158C147.606 17.138 147.816 16.256 148.236 15.512C148.668 14.768 149.25 14.192 149.982 13.784C150.714 13.376 151.536 13.172 152.448 13.172C153.264 13.172 153.978 13.352 154.59 13.712C155.202 14.072 155.676 14.618 156.012 15.35C156.348 16.082 156.516 17.018 156.516 18.158C156.516 19.286 156.354 20.222 156.03 20.966C155.706 21.698 155.238 22.244 154.626 22.604C154.026 22.964 153.3 23.144 152.448 23.144ZM152.934 20.84C153.39 20.84 153.804 20.732 154.176 20.516C154.548 20.3 154.842 19.994 155.058 19.598C155.286 19.19 155.4 18.71 155.4 18.158C155.4 17.594 155.286 17.114 155.058 16.718C154.842 16.322 154.548 16.016 154.176 15.8C153.804 15.584 153.39 15.476 152.934 15.476C152.466 15.476 152.046 15.584 151.674 15.8C151.302 16.016 151.002 16.322 150.774 16.718C150.558 17.114 150.45 17.594 150.45 18.158C150.45 18.71 150.558 19.19 150.774 19.598C151.002 19.994 151.302 20.3 151.674 20.516C152.046 20.732 152.466 20.84 152.934 20.84ZM155.472 23V21.02L155.526 18.14L155.346 15.278V9.644H158.154V23H155.472ZM165.559 23.144C164.455 23.144 163.483 22.928 162.643 22.496C161.815 22.064 161.173 21.476 160.717 20.732C160.261 19.976 160.033 19.118 160.033 18.158C160.033 17.186 160.255 16.328 160.699 15.584C161.155 14.828 161.773 14.24 162.553 13.82C163.333 13.388 164.215 13.172 165.199 13.172C166.147 13.172 166.999 13.376 167.755 13.784C168.523 14.18 169.129 14.756 169.573 15.512C170.017 16.256 170.239 17.15 170.239 18.194C170.239 18.302 170.233 18.428 170.221 18.572C170.209 18.704 170.197 18.83 170.185 18.95H162.319V17.312H168.709L167.629 17.798C167.629 17.294 167.527 16.856 167.323 16.484C167.119 16.112 166.837 15.824 166.477 15.62C166.117 15.404 165.697 15.296 165.217 15.296C164.737 15.296 164.311 15.404 163.939 15.62C163.579 15.824 163.297 16.118 163.093 16.502C162.889 16.874 162.787 17.318 162.787 17.834V18.266C162.787 18.794 162.901 19.262 163.129 19.67C163.369 20.066 163.699 20.372 164.119 20.588C164.551 20.792 165.055 20.894 165.631 20.894C166.147 20.894 166.597 20.816 166.981 20.66C167.377 20.504 167.737 20.27 168.061 19.958L169.555 21.578C169.111 22.082 168.553 22.472 167.881 22.748C167.209 23.012 166.435 23.144 165.559 23.144ZM184.511 13.172C185.279 13.172 185.957 13.328 186.545 13.64C187.145 13.94 187.613 14.408 187.949 15.044C188.297 15.668 188.471 16.472 188.471 17.456V23H185.663V17.888C185.663 17.108 185.501 16.532 185.177 16.16C184.853 15.788 184.397 15.602 183.809 15.602C183.401 15.602 183.035 15.698 182.711 15.89C182.387 16.07 182.135 16.346 181.955 16.718C181.775 17.09 181.685 17.564 181.685 18.14V23H178.877V17.888C178.877 17.108 178.715 16.532 178.391 16.16C178.079 15.788 177.629 15.602 177.041 15.602C176.633 15.602 176.267 15.698 175.943 15.89C175.619 16.07 175.367 16.346 175.187 16.718C175.007 17.09 174.917 17.564 174.917 18.14V23H172.109V13.316H174.791V15.962L174.287 15.188C174.623 14.528 175.097 14.03 175.709 13.694C176.333 13.346 177.041 13.172 177.833 13.172C178.721 13.172 179.495 13.4 180.155 13.856C180.827 14.3 181.271 14.984 181.487 15.908L180.497 15.638C180.821 14.882 181.337 14.282 182.045 13.838C182.765 13.394 183.587 13.172 184.511 13.172ZM192.036 26.636C191.532 26.636 191.034 26.558 190.542 26.402C190.05 26.246 189.648 26.03 189.336 25.754L190.362 23.756C190.578 23.948 190.824 24.098 191.1 24.206C191.388 24.314 191.67 24.368 191.946 24.368C192.342 24.368 192.654 24.272 192.882 24.08C193.122 23.9 193.338 23.594 193.53 23.162L194.034 21.974L194.25 21.668L197.724 13.316H200.424L196.05 23.594C195.738 24.374 195.378 24.986 194.97 25.43C194.574 25.874 194.13 26.186 193.638 26.366C193.158 26.546 192.624 26.636 192.036 26.636ZM193.692 23.378L189.372 13.316H192.27L195.618 21.416L193.692 23.378Z" fill="white"/>
<defs>
<linearGradient id="paint0_linear_13_2782" x1="18.8276" y1="13.9556" x2="18.8276" y2="23.5777" gradientUnits="userSpaceOnUse">
<stop offset="2.71717e-07" stop-color="#FF4681"/>
<stop offset="1" stop-color="#9B44F6"/>
</linearGradient>
<linearGradient id="paint1_linear_13_2782" x1="21.1559" y1="18.5887" x2="19.8015" y2="22.1648" gradientUnits="userSpaceOnUse">
<stop offset="9.43019e-07"/>
<stop offset="1"/>
</linearGradient>
<linearGradient id="paint2_linear_13_2782" x1="-0.135921" y1="9.3743" x2="19.1083" y2="28.6185" gradientUnits="userSpaceOnUse">
<stop offset="9.43019e-07" stop-color="#FF4681"/>
<stop offset="0.7392" stop-color="#9B44F6"/>
</linearGradient>
</defs>
</svg>
